<svg xmlns="http://www.w3.org/2000/svg" viewBox="0 0 327.61 460.38"><defs><style>.cls-1{fill:#a7f2e4;stroke:#a7f2e4;stroke-width:1.08px;}.cls-1,.cls-10,.cls-12,.cls-13,.cls-2,.cls-3,.cls-4,.cls-5,.cls-6,.cls-7,.cls-8,.cls-9{stroke-miterlimit:10;}.cls-11,.cls-2,.cls-3,.cls-5,.cls-7,.cls-9{fill:#010101;}.cls-10,.cls-2,.cls-3,.cls-4,.cls-5,.cls-6,.cls-7,.cls-8,.cls-9{stroke:#010101;}.cls-12,.cls-2{stroke-width:1px;}.cls-3,.cls-4{stroke-width:1.23px;}.cls-10,.cls-4,.cls-6,.cls-8{fill:none;}.cls-5,.cls-6{stroke-width:1.21px;}.cls-13,.cls-7,.cls-8{stroke-width:0.97px;}.cls-10,.cls-9{stroke-width:1.23px;}.cls-12,.cls-13{fill:#2a3331;stroke:#2a3331;}</style></defs><g id="Layer_2" data-name="Layer 2"><g id="chair"><g id="chair-2" data-name="chair"><path class="cls-1" d="M76.42,335.05,29.12,223.28l3.18-2.2-3.18-11.93h4.95l-.71-6.28L39,201.3l-4.94-14.44,4.58-8.16,5.42-1.58-7.53-14.44,2.82-5,.35-12.24,6.36,2.19,2.11-2.19L47.12,142l-.7-4.39H57.36l6,1.57-13.76-25,22.58,22.22L56.92,102.64l31.85,36.81L59,85.76,91.6,121.55,68,72.26l.35-5.19,4.24,2.68L104,126.26,82.77,55.39l1.77-13.58,27.53,80.06-6.71-51.18-8.47-33,2.47-7.85,31.06,85.72,2.12-12.87L121.6,39l-.71-19.15,4.94,11.61,10.94,60,5.65,14.45L144.54,92l-7.06-74.1L139.6,6.33l4.94,11.3,9.17,85.09,8.47,23.54L157.6,9.47l1.76-7.85L164,11l4.23,66.87,4.06,41.45,5.47-12.88,3.44-98.19L189,18.89l-2.83,95.18,7.42-11.67,16.94-80.06,3.88-5.65V28.62l-12,87,23.29-88.23,2.12,8.48-8.47,67.5L224,104.6,243,36.47l-4.59,58.08,21.18-35.2s-1.06,8.83,0,9.77-12,39.56-12,39.56l21.88-24.49L265.24,99,252.18,133.8l25.06-31.4-13.41,34.22L280.07,120l-13.42,32,23-18.53,1.41,5,3.53.63-9.89,22.29,1.42,8.16L302.65,157l-13.76,20.09v3.46l9.18-.94v4.08l2,3.14v5.21l-7.65,12.69-.71,8.47,14.83-8.16-2.12,7.85,3.53-1.26L283.6,249.34l.7,10.67-7.76,8.48-4.59,21L249,335.05Z"/><path class="cls-2" d="M279.22,190.91c-3.5-3-7.46-5.49-11-8.5l7.63,6.57c-13.09,15.35-25.45,31.33-38.55,46.67-.42.46-2.51,5.77-1.91,6.28s5.05-1.86,5.85-2.8l40.1-45.42,7.63,6.58C285.59,197.34,282.63,193.85,279.22,190.91Z"/><path class="cls-2" d="M285.74,187.4a1.5,1.5,0,0,0-.16-2.12,1.5,1.5,0,0,0,2.12-.16l3.51-4.12a1.5,1.5,0,0,0-.16-2.12,1.49,1.49,0,0,0,2.11-.16l3.52-4.12a1.51,1.51,0,0,0-.17-2.12l-2-1.76a1.49,1.49,0,0,0-2.11.16L288.84,175a1.51,1.51,0,0,0,.17,2.12,1.5,1.5,0,0,0-2.12.16l-3.51,4.12a1.5,1.5,0,0,0,.16,2.12,1.49,1.49,0,0,0-2.11.16l-4.49,5.26,2.28,2,2,1.75Z"/><path class="cls-2" d="M23.62,246.94c-2.17,4.09-3.7,8.51-5.87,12.61l4.72-8.92c17.77,9.49,36,18.12,53.75,27.61.55.32,6.16,1.21,6.53.51.45-.85-2.91-4.54-4-5.13L25.87,244.23l4.73-8.92C28.48,239.29,25.73,243,23.62,246.94Z"/><path class="cls-2" d="M18.79,241.31a1.5,1.5,0,0,0-2,.62,1.5,1.5,0,0,0-.62-2l-4.76-2.55a1.5,1.5,0,0,0-2,.62,1.51,1.51,0,0,0-.62-2L4,233.39a1.49,1.49,0,0,0-2,.62L.68,236.39a1.51,1.51,0,0,0,.62,2L6.06,241a1.5,1.5,0,0,0,2-.62,1.5,1.5,0,0,0,.62,2l4.76,2.55a1.5,1.5,0,0,0,2-.62,1.52,1.52,0,0,0,.62,2l6.08,3.25,1.42-2.67,1.26-2.37Z"/><path class="cls-2" d="M257.74,144.18c-4-2.33-8.33-4-12.32-6.35l8.7,5.06c-10.09,17.49-19.33,35.47-29.42,53-.33.53-1.42,6.13-.74,6.53s4.62-2.76,5.24-3.83l31.17-52,8.7,5.07C265.18,149.34,261.64,146.44,257.74,144.18Z"/><path class="cls-2" d="M263.52,139.53a1.51,1.51,0,0,0-.54-2.06,1.49,1.49,0,0,0,2-.54l2.7-4.69a1.51,1.51,0,0,0-.54-2.06,1.5,1.5,0,0,0,2.05-.55l2.7-4.69a1.5,1.5,0,0,0-.54-2l-2.33-1.36a1.49,1.49,0,0,0-2.05.55l-2.71,4.69a1.52,1.52,0,0,0,.55,2.06,1.49,1.49,0,0,0-2.05.54l-2.71,4.69a1.52,1.52,0,0,0,.55,2.06,1.49,1.49,0,0,0-2,.55l-3.46,6,2.6,1.52,2.32,1.34Z"/><path class="cls-2" d="M110.75,145.51c-4.19,2-8.07,4.54-12.26,6.48l9.13-4.23c8.45,18.34,17.77,36.28,26.21,54.62.24.58,4.18,4.7,4.89,4.37.88-.41.42-5.39-.1-6.51l-24.44-55.53,9.13-4.23C119.23,142.37,114.84,143.62,110.75,145.51Z"/><path class="cls-2" d="M110.29,138.1a1.49,1.49,0,0,0-2-.74,1.51,1.51,0,0,0,.74-2l-2.27-4.92a1.51,1.51,0,0,0-2-.74,1.5,1.5,0,0,0,.74-2l-2.26-4.92a1.49,1.49,0,0,0-2-.74l-2.45,1.13a1.51,1.51,0,0,0-.73,2l2.26,4.92a1.49,1.49,0,0,0,2,.74,1.51,1.51,0,0,0-.73,2l2.26,4.92a1.5,1.5,0,0,0,2,.73,1.51,1.51,0,0,0-.73,2l2.89,6.29,2.73-1.27,2.43-1.13Z"/><path class="cls-2" d="M133.19,284c-4.19,1.95-8.07,4.54-12.26,6.48l9.13-4.23c8.44,18.34,17.77,36.28,26.2,54.62.25.58,4.18,4.7,4.9,4.37.87-.41.41-5.39-.11-6.51l-24.43-55.53,9.13-4.23C141.67,280.9,137.27,282.15,133.19,284Z"/><path class="cls-2" d="M132.73,276.63a1.51,1.51,0,0,1-1.26-2.74L129.21,269a1.51,1.51,0,0,0-2-.74,1.5,1.5,0,0,0,.73-2l-2.26-4.92a1.49,1.49,0,0,0-2-.74l-2.44,1.13a1.51,1.51,0,0,0-.73,2l2.26,4.92a1.49,1.49,0,0,0,2,.74,1.51,1.51,0,0,0-.73,2l2.26,4.92a1.5,1.5,0,0,0,2,.73,1.52,1.52,0,0,0-.74,2l2.9,6.29,2.73-1.27,2.43-1.13Z"/><path class="cls-2" d="M200.86,286.31c-4.06-2.21-8.46-3.77-12.52-6l8.85,4.8c-9.55,17.78-18.25,36-27.82,53.81-.31.55-1.23,6.18-.54,6.55.85.46,4.54-2.89,5.13-4l29.59-52.94,8.85,4.81C208.44,291.24,204.81,288.45,200.86,286.31Z"/><path class="cls-2" d="M206.49,281.49a1.51,1.51,0,1,1,1.43-2.65l2.56-4.77a1.51,1.51,0,1,1,1.43-2.65l2.56-4.77a1.51,1.51,0,0,0-.61-2l-2.36-1.28a1.49,1.49,0,0,0-2,.61l-2.57,4.77a1.51,1.51,0,0,0,.61,2,1.49,1.49,0,0,0-2,.61l-2.57,4.77a1.51,1.51,0,0,0,.61,2,1.48,1.48,0,0,0-2,.61l-3.28,6.09,2.65,1.44,2.35,1.28Z"/><path class="cls-2" d="M190.76,131.09c-4.37-1.48-9-2.27-13.34-3.75l9.53,3.22c-6.4,19.16-11.88,38.63-18.29,57.79-.22.59-.17,6.3.58,6.55.91.31,4-3.63,4.37-4.81l20.19-57.22,9.54,3.22C199.07,134.65,195,132.53,190.76,131.09Z"/><path class="cls-2" d="M195.5,125.38a1.52,1.52,0,0,0-.94-1.91,1.5,1.5,0,0,0,1.9-.94l1.71-5.14a1.5,1.5,0,0,0-.94-1.91,1.49,1.49,0,0,0,1.9-1l1.72-5.13a1.51,1.51,0,0,0-.94-1.91l-2.55-.86a1.49,1.49,0,0,0-1.9.94l-1.72,5.14a1.51,1.51,0,0,0,.94,1.91,1.5,1.5,0,0,0-1.9.95l-1.72,5.14a1.5,1.5,0,0,0,.95,1.9,1.5,1.5,0,0,0-1.9,1l-2.2,6.57,2.85,1,2.54.86Z"/><path class="cls-2" d="M48.36,201.62c-2.18,4.09-3.71,8.51-5.89,12.6l4.74-8.91c17.75,9.51,36,18.17,53.71,27.69.55.31,6.16,1.21,6.53.51s-2.91-4.54-4-5.13L50.61,198.91,55.35,190C53.24,194,50.48,197.64,48.36,201.62Z"/><path class="cls-2" d="M43.54,196a1.49,1.49,0,0,0-2,.62,1.51,1.51,0,0,0-.62-2L36.13,192a1.49,1.49,0,0,0-2,.62,1.5,1.5,0,0,0-.62-2L28.73,188a1.5,1.5,0,0,0-2,.62L25.43,191a1.51,1.51,0,0,0,.62,2l4.76,2.55a1.49,1.49,0,0,0,2-.61,1.5,1.5,0,0,0,.61,2l4.76,2.56a1.5,1.5,0,0,0,2-.62,1.52,1.52,0,0,0,.62,2l6.08,3.26,1.42-2.67,1.26-2.37Z"/><path class="cls-2" d="M289.49,342.46c-3.77-2.66-7.95-4.74-11.72-7.41l8.22,5.82c-11.58,16.53-22.36,33.62-33.94,50.14-.38.51-2,6-1.31,6.45s4.85-2.34,5.56-3.36L291.89,345l8.23,5.82C296.44,348.26,293.17,345.07,289.49,342.46Z"/><path class="cls-2" d="M295.65,338.35a1.5,1.5,0,0,1,1.73-2.46l3.1-4.43a1.51,1.51,0,0,1,1.73-2.47l3.11-4.43a1.52,1.52,0,0,0-.37-2.1l-2.19-1.55a1.49,1.49,0,0,0-2.09.36l-3.11,4.43a1.51,1.51,0,0,1-1.73,2.47l-3.1,4.43a1.5,1.5,0,0,1-1.73,2.46l-4,5.66,2.46,1.74,2.19,1.55Z"/><path class="cls-2" d="M29,384.11c-2.77,3.71-5,7.84-7.73,11.54l6-8.07c16.09,12.12,32.77,23.47,48.86,35.61.49.39,5.9,2.14,6.37,1.51s-2.18-4.94-3.16-5.69L31.66,381.77l6.05-8.08C35,377.31,31.72,380.5,29,384.11Z"/><path class="cls-2" d="M25.12,377.8a1.49,1.49,0,0,0-2.1.3,1.51,1.51,0,0,0-.3-2.11l-4.32-3.25a1.48,1.48,0,0,0-2.09.3,1.52,1.52,0,0,0-.3-2.11l-4.32-3.26a1.5,1.5,0,0,0-2.1.3L8,370.13a1.5,1.5,0,0,0,.3,2.11l4.31,3.26a1.5,1.5,0,0,0,2.1-.3,1.5,1.5,0,0,0,.3,2.1l4.31,3.26a1.5,1.5,0,0,0,2.1-.3,1.52,1.52,0,0,0,.3,2.11l5.52,4.16,1.8-2.42L30.63,382Z"/><path class="cls-2" d="M306.28,393.22c-2.86-3.64-6.27-6.83-9.13-10.47l6.23,7.94c-15.79,12.52-31,25.81-46.79,38.32-.5.38-3.57,5.18-3.08,5.8s5.31-.85,6.28-1.62l48.06-36.81,6.23,7.94C311.3,400.77,309.07,396.77,306.28,393.22Z"/><path class="cls-2" d="M313.35,391a1.5,1.5,0,0,1,2.36-1.86l4.24-3.36A1.5,1.5,0,1,1,322.3,384l4.24-3.36a1.51,1.51,0,0,0,.25-2.11l-1.67-2.13a1.48,1.48,0,0,0-2.1-.24l-4.24,3.35a1.52,1.52,0,0,0-.25,2.12,1.49,1.49,0,0,0-2.11-.25l-4.23,3.35a1.51,1.51,0,0,0-.25,2.12,1.49,1.49,0,0,0-2.11-.25l-5.41,4.29,1.86,2.37,1.66,2.11Z"/><path class="cls-2" d="M271,315.21c-3.77-2.67-8-4.75-11.72-7.42l8.22,5.82c-11.57,16.53-22.36,33.62-33.94,50.15-.38.5-1.95,6-1.31,6.44.79.56,4.85-2.34,5.56-3.36l35.6-49,8.22,5.81C278,321,274.72,317.81,271,315.21Z"/><path class="cls-2" d="M277.2,311.09a1.5,1.5,0,0,1,1.73-2.46L282,304.2a1.52,1.52,0,0,0-.37-2.1,1.49,1.49,0,0,0,2.09-.36l3.11-4.44a1.5,1.5,0,0,0-.36-2.09l-2.2-1.56a1.49,1.49,0,0,0-2.09.36l-3.11,4.44a1.51,1.51,0,0,0,.36,2.09,1.49,1.49,0,0,0-2.08.37l-3.11,4.43a1.5,1.5,0,0,1-1.73,2.46l-4,5.67,2.46,1.74,2.19,1.55Z"/><path class="cls-2" d="M55.54,335.76c-4.24,1.82-8.2,4.29-12.45,6.11l9.26-4c7.89,18.59,16.67,36.8,24.55,55.4.23.58,4,4.82,4.77,4.51s.57-5.38.09-6.52L59,335.07l9.26-4C64.11,332.88,59.68,334,55.54,335.76Z"/><path class="cls-2" d="M55.31,328.34a1.51,1.51,0,0,0-2-.8,1.5,1.5,0,0,0,.79-2l-2.11-5a1.51,1.51,0,0,0-2-.8,1.5,1.5,0,0,0,.79-2l-2.11-5a1.5,1.5,0,0,0-2-.79l-2.47,1.05a1.51,1.51,0,0,0-.8,2l2.12,5a1.49,1.49,0,0,0,2,.79,1.52,1.52,0,0,0-.79,2l2.12,5a1.48,1.48,0,0,0,2,.8,1.52,1.52,0,0,0-.79,2l2.7,6.37,2.77-1.19L58,334.71Z"/><path class="cls-2" d="M61.72,302.8c-4,2.37-7.55,5.36-11.52,7.74l8.64-5.18c10.32,17.35,21.47,34.2,31.78,51.56.31.55,4.65,4.22,5.33,3.82s-.16-5.4-.79-6.47L65,301.64l8.64-5.17C69.82,298.78,65.58,300.48,61.72,302.8Z"/><path class="cls-2" d="M60.48,295.47a1.49,1.49,0,0,0-2-.52,1.51,1.51,0,0,0,.52-2.06l-2.77-4.66a1.49,1.49,0,0,0-2-.52,1.5,1.5,0,0,0,.51-2.06L51.88,281a1.5,1.5,0,0,0-2.06-.52l-2.31,1.38a1.52,1.52,0,0,0-.52,2.07l2.77,4.65a1.49,1.49,0,0,0,2.06.52,1.5,1.5,0,0,0-.52,2.07l2.76,4.65a1.5,1.5,0,0,0,2.06.53,1.5,1.5,0,0,0-.52,2.06l3.53,6,2.59-1.55,2.3-1.38Z"/><path class="cls-3" d="M72,160.46c4.34-1.16,8.48-3.07,12.71-4.64h0Z"/><path class="cls-3" d="M94,153.31c4.44-.76,9-1.15,13.3-2.31Z"/><path class="cls-3" d="M89.48,154.27c-1.6.44-3.18,1-4.74,1.55,10.46,39.23,22.42,79.27,32.86,118.5.31,1.23,5.49,11.06,6.5,10.78,1.24-.33.94-10.06.3-12.47L93.94,153.32h0C92.45,153.57,91,153.88,89.48,154.27Z"/><path class="cls-3" d="M89.36,139.9c-.43-1.61-1.65-2.69-2.72-2.4,1.07-.29,1.59-1.83,1.16-3.44L85,123.54c-.43-1.62-1.65-2.69-2.71-2.41,1.06-.28,1.58-1.82,1.15-3.44l-2.8-10.52c-.43-1.61-1.65-2.69-2.71-2.4l-3.47.93c-1.07.28-1.58,1.83-1.15,3.44l2.8,10.52c.43,1.62,1.64,2.69,2.71,2.4-1.07.29-1.58,1.83-1.15,3.45L80.47,136c.43,1.61,1.64,2.69,2.71,2.4-1.07.29-1.59,1.83-1.16,3.44l3.59,13.45,3.87-1,3.46-.92Z"/><line class="cls-4" x1="72.11" y1="160.73" x2="107.35" y2="151.26"/><path class="cls-5" d="M199.17,144.55c4.41.84,9,.94,13.45,1.38h0Z"/><path class="cls-5" d="M222,147.69c4.33,1.22,8.59,2.83,13,3.67Z"/><path class="cls-5" d="M217.56,146.61c-1.63-.31-3.28-.52-4.94-.68-7.31,38.89-13.62,79.13-20.94,118-.25,1.2.23,12,1.26,12.24,1.26.24,5.15-8.42,5.6-10.81L222,147.68h0C220.54,147.27,219.06,146.89,217.56,146.61Z"/><path class="cls-5" d="M223.58,134c.3-1.6-.33-3.06-1.42-3.27,1.09.21,2.21-.92,2.51-2.52l2-10.43c.3-1.6-.34-3.07-1.42-3.27,1.08.2,2.21-.93,2.51-2.53l2-10.42c.3-1.6-.33-3.07-1.42-3.27l-3.53-.67c-1.08-.21-2.21.92-2.51,2.52l-2,10.43c-.3,1.6.33,3.06,1.42,3.27-1.09-.21-2.21.92-2.51,2.52l-2,10.43c-.31,1.6.33,3.07,1.42,3.27-1.09-.2-2.21.93-2.52,2.53l-2.5,13.32,3.94.75,3.51.67Z"/><line class="cls-6" x1="199.13" y1="144.82" x2="234.97" y2="151.62"/><path class="cls-7" d="M130.7,142c3.44,0,6.88-.63,10.32-1h0Z"/><path class="cls-7" d="M148.34,141c3.43.33,6.86,1,10.29,1Z"/><path class="cls-7" d="M144.83,140.81c-1.27,0-2.54.09-3.81.21,0,33.32,1,67.61,1,100.93,0,1,1.87,9.93,2.68,9.93,1,0,2.68-7.78,2.68-9.82l1-101.06h0A34.4,34.4,0,0,0,144.83,140.81Z"/><path class="cls-7" d="M147.57,129.39c0-1.37-.69-2.49-1.53-2.49.84,0,1.53-1.11,1.53-2.48v-8.93c0-1.38-.69-2.49-1.53-2.49.84,0,1.53-1.11,1.53-2.48v-8.94c0-1.37-.69-2.48-1.53-2.48h-2.75c-.84,0-1.53,1.11-1.53,2.48v8.94c0,1.37.69,2.48,1.53,2.48-.84,0-1.53,1.11-1.53,2.49v8.93c0,1.37.69,2.48,1.53,2.48-.84,0-1.53,1.12-1.53,2.49v11.42h5.81Z"/><line class="cls-8" x1="130.71" y1="142.22" x2="158.64" y2="142.22"/><path class="cls-7" d="M141.67,239.34c3.44,0,6.88-.63,10.32-1h0Z"/><path class="cls-7" d="M159.31,238.34c3.43.34,6.86,1,10.29,1Z"/><path class="cls-7" d="M155.81,238.15a37.46,37.46,0,0,0-3.82.22c0,33.32,1,67.61,1,100.93,0,1,1.87,9.93,2.68,9.93,1,0,2.68-7.78,2.68-9.82l1-101.07h0C158.14,238.23,157,238.15,155.81,238.15Z"/><path class="cls-7" d="M158.54,226.73c0-1.37-.68-2.48-1.53-2.48.85,0,1.53-1.11,1.53-2.48v-8.94c0-1.37-.68-2.48-1.53-2.48.85,0,1.53-1.11,1.53-2.48v-8.94c0-1.37-.68-2.48-1.53-2.48h-2.75c-.84,0-1.53,1.11-1.53,2.48v8.94c0,1.37.69,2.48,1.53,2.48-.84,0-1.53,1.11-1.53,2.48v8.94c0,1.37.69,2.48,1.53,2.48-.84,0-1.53,1.11-1.53,2.48v11.42h5.81Z"/><line class="cls-8" x1="141.69" y1="239.57" x2="169.61" y2="239.57"/><path class="cls-7" d="M51.83,185.4c3.24-1.17,6.26-2.94,9.38-4.43h0Z"/><path class="cls-7" d="M68.08,178.45c3.34-.86,6.8-1.41,10-2.58Z"/><path class="cls-7" d="M64.73,179.46c-1.2.44-2.37,1-3.52,1.51,11.28,31.33,23.77,63.26,35,94.6.34,1,5.13,8.7,5.88,8.42.93-.33-.11-8.23-.8-10.15L68.06,178.45h0C67,178.74,65.82,179.07,64.73,179.46Z"/><path class="cls-7" d="M63.44,167.79C63,166.5,62,165.69,61.16,166c.79-.29,1.06-1.57.6-2.86l-3-8.4c-.47-1.29-1.49-2.1-2.28-1.82.79-.28,1.06-1.56.6-2.85l-3-8.41c-.46-1.29-1.48-2.1-2.28-1.81l-2.58.94c-.8.28-1.06,1.56-.6,2.85l3,8.41c.47,1.29,1.49,2.1,2.28,1.81-.79.29-1.06,1.57-.6,2.86l3,8.4c.47,1.29,1.49,2.1,2.28,1.82-.79.28-1.06,1.56-.6,2.85l3.86,10.74,2.9-1,2.57-.93Z"/><line class="cls-8" x1="51.92" y1="185.61" x2="78.19" y2="176.08"/><path class="cls-7" d="M41.65,177.35c2.73-2.1,5.08-4.7,7.6-7.07h0Z"/><path class="cls-7" d="M55.05,165.79c2.92-1.82,6.05-3.4,8.77-5.49Z"/><path class="cls-7" d="M52.15,167.78c-1,.78-2,1.63-2.9,2.5,20.18,26.45,41.69,53.1,61.85,79.55.62.84,7.5,6.74,8.14,6.25s-2.58-7.81-3.81-9.43L55,165.81l0,0C54.05,166.42,53.08,167.07,52.15,167.78Z"/><path class="cls-7" d="M47.41,157c-.83-1.08-2-1.55-2.72-1,.67-.52.55-1.82-.28-2.91L39,146c-.83-1.09-2-1.56-2.72-1,.67-.52.54-1.82-.29-2.91L30.58,135c-.83-1.09-2-1.56-2.71-1l-2.19,1.68c-.67.52-.54,1.82.29,2.91l5.41,7.09c.83,1.09,2.05,1.55,2.72,1-.67.51-.55,1.81.28,2.9l5.41,7.1c.83,1.09,2.05,1.55,2.72,1-.67.52-.54,1.82.29,2.91l6.91,9.07,2.44-1.88,2.17-1.67Z"/><line class="cls-8" x1="41.79" y1="177.52" x2="63.97" y2="160.47"/><path class="cls-7" d="M57.43,157c3.14-1.43,6-3.43,9-5.16h0Z"/><path class="cls-7" d="M73.08,148.8c3.27-1.12,6.66-1.94,9.78-3.36Z"/><path class="cls-7" d="M69.81,150.08c-1.16.53-2.28,1.14-3.38,1.78C80.14,182.2,95.11,213,108.81,243.38c.41,1,5.79,8.26,6.52,7.93.89-.41-.76-8.19-1.6-10.06L73.06,148.81h0C72,149.18,70.88,149.59,69.81,150.08Z"/><path class="cls-7" d="M67.61,138.54c-.56-1.25-1.64-2-2.41-1.62.77-.35.93-1.65.37-2.9l-3.67-8.14c-.57-1.25-1.65-2-2.42-1.62.77-.35.94-1.65.37-2.9l-3.67-8.14c-.56-1.25-1.65-2-2.42-1.62l-2.5,1.14c-.77.35-.94,1.64-.37,2.89l3.67,8.14c.57,1.25,1.65,2,2.42,1.63-.77.35-.94,1.64-.38,2.89l3.68,8.14c.56,1.25,1.64,2,2.41,1.63-.77.35-.93,1.64-.37,2.89L67,151.35l2.8-1.27,2.5-1.14Z"/><line class="cls-8" x1="57.54" y1="157.22" x2="82.97" y2="145.64"/><path class="cls-7" d="M93.32,166.47c3.23-1.19,6.24-3,9.35-4.48h0Z"/><path class="cls-7" d="M109.53,159.43c3.34-.88,6.79-1.45,10-2.64Z"/><path class="cls-7" d="M106.18,160.46a37.62,37.62,0,0,0-3.51,1.53c11.45,31.26,24.13,63.12,35.57,94.39.34,1,5.17,8.67,5.93,8.4.92-.34-.16-8.23-.86-10.15l-33.8-95.2h0C108.4,159.72,107.27,160.06,106.18,160.46Z"/><path class="cls-7" d="M104.82,148.79c-.47-1.28-1.49-2.09-2.29-1.8.8-.29,1.06-1.57.59-2.86l-3.07-8.38c-.47-1.29-1.5-2.1-2.29-1.8.79-.3,1-1.58.58-2.86l-3.07-8.39c-.47-1.29-1.49-2.09-2.29-1.8l-2.57.95c-.8.29-1.06,1.57-.59,2.86l3.07,8.39c.47,1.29,1.5,2.09,2.29,1.8-.79.29-1.06,1.57-.58,2.86l3.06,8.39c.48,1.28,1.5,2.09,2.29,1.8-.79.29-1,1.57-.58,2.86l3.92,10.72,2.89-1.07,2.57-1Z"/><line class="cls-8" x1="93.41" y1="166.68" x2="119.62" y2="157"/><path class="cls-7" d="M45.16,227.11c3.23-1.2,6.24-3,9.35-4.49h0Z"/><path class="cls-7" d="M61.37,220.07c3.34-.88,6.79-1.44,10-2.63Z"/><path class="cls-7" d="M58,221.1a37.54,37.54,0,0,0-3.51,1.52C66,253.9,78.62,285.76,90.05,317c.34,1,5.17,8.68,5.92,8.4.93-.34-.15-8.23-.85-10.15L61.35,220.07h0C60.24,220.36,59.11,220.7,58,221.1Z"/><path class="cls-7" d="M56.67,209.43c-.47-1.28-1.5-2.09-2.29-1.8.79-.29,1.06-1.57.58-2.86l-3.06-8.39c-.47-1.28-1.5-2.09-2.29-1.8.79-.29,1.06-1.57.58-2.86l-3.06-8.39c-.47-1.28-1.5-2.09-2.29-1.8l-2.58.95c-.79.3-1.06,1.58-.59,2.86l3.07,8.39c.47,1.29,1.5,2.1,2.29,1.8-.79.3-1.06,1.58-.59,2.86l3.07,8.39c.47,1.29,1.5,2.1,2.29,1.8-.79.3-1.06,1.58-.59,2.86l3.92,10.72L58,221.1l2.57-.95Z"/><line class="cls-8" x1="45.25" y1="227.31" x2="71.46" y2="217.65"/><path class="cls-7" d="M23.31,239.56c2.67-2.18,4.93-4.84,7.39-7.29h0Z"/><path class="cls-7" d="M36.36,227.61c2.87-1.91,6-3.58,8.61-5.75Z"/><path class="cls-7" d="M33.52,229.68c-1,.81-1.92,1.69-2.82,2.59,21,25.83,43.24,51.82,64.18,77.67.64.81,7.7,6.51,8.32,6s-2.81-7.73-4.09-9.32l-62.77-79h0C35.38,228.26,34.43,228.94,33.52,229.68Z"/><path class="cls-7" d="M28.47,219.09c-.87-1.06-2.1-1.49-2.75-1,.65-.54.49-1.83-.37-2.9l-5.62-6.93c-.86-1.06-2.09-1.49-2.75-.95.66-.54.49-1.84-.37-2.9L11,197.53c-.86-1.06-2.09-1.49-2.75-.95l-2.13,1.74c-.65.53-.49,1.83.38,2.89l5.61,6.93c.86,1.07,2.09,1.49,2.75,1-.66.53-.49,1.83.37,2.9l5.62,6.93c.86,1.06,2.09,1.49,2.75.95-.66.54-.49,1.83.37,2.9l7.18,8.85,2.38-1.95L35.64,228Z"/><line class="cls-8" x1="23.46" y1="239.73" x2="45.12" y2="222.03"/><path class="cls-7" d="M285.35,235.34c2.49,2.39,5.4,4.32,8.12,6.47h0Z"/><path class="cls-7" d="M298.77,246.88c2.24,2.63,4.26,5.49,6.74,7.87Z"/><path class="cls-7" d="M296.37,244.31a38.21,38.21,0,0,0-2.9-2.5c-23,24.05-45.9,49.46-68.87,73.51-.73.73-5.49,8.47-4.91,9s7.3-3.75,8.71-5.23l70.35-72.26,0,0C298,246,297.21,245.12,296.37,244.31Z"/><path class="cls-7" d="M306.22,238c.94-1,1.21-2.27.6-2.86.61.59,1.87.26,2.82-.73l6.16-6.44c.94-1,1.21-2.27.6-2.86.61.59,1.87.26,2.82-.73l6.16-6.45c.94-1,1.21-2.27.6-2.85l-2-1.91c-.61-.59-1.87-.27-2.82.72L315,220.31c-.95,1-1.22,2.27-.61,2.86-.61-.59-1.87-.26-2.82.73l-6.16,6.44c-.94,1-1.21,2.27-.6,2.86-.61-.59-1.87-.26-2.82.73l-7.87,8.24,2.22,2.14,2,1.9Z"/><line class="cls-8" x1="285.21" y1="235.51" x2="305.36" y2="254.93"/><path class="cls-7" d="M120.54,163.91c3.42-.36,6.78-1.34,10.16-2h0Z"/><path class="cls-7" d="M138,161.1c3.45,0,6.93.28,10.34-.07Z"/><path class="cls-7" d="M134.48,161.27a37.18,37.18,0,0,0-3.78.61C134.12,195,138.57,229,142,262.18c.09,1,2.88,9.68,3.68,9.6,1-.1,1.87-8,1.66-10L138,161.1h0C136.81,161.11,135.64,161.15,134.48,161.27Z"/><path class="cls-7" d="M136,149.63c-.14-1.36-.93-2.4-1.77-2.31.84-.09,1.41-1.26,1.27-2.63l-.92-8.89c-.14-1.36-.93-2.4-1.77-2.31.84-.09,1.41-1.26,1.27-2.63l-.92-8.89c-.14-1.36-.93-2.39-1.77-2.31l-2.74.29c-.84.08-1.41,1.26-1.27,2.62l.92,8.89c.14,1.37.93,2.4,1.77,2.31-.84.09-1.41,1.27-1.27,2.63l.92,8.89c.14,1.36.93,2.4,1.77,2.31-.84.09-1.41,1.27-1.27,2.63l1.17,11.36,3.06-.32,2.72-.28Z"/><line class="cls-8" x1="120.58" y1="164.13" x2="148.35" y2="161.26"/><path class="cls-7" d="M180.45,158.74c3.44,0,6.88-.63,10.32-1h0Z"/><path class="cls-7" d="M198.09,157.75c3.43.33,6.86,1,10.29,1Z"/><path class="cls-7" d="M194.58,157.56c-1.27,0-2.54.09-3.81.21,0,33.32,1,67.61,1,100.93,0,1,1.88,9.93,2.68,9.93,1,0,2.68-7.78,2.68-9.82l1-101.06h0A34.4,34.4,0,0,0,194.58,157.56Z"/><path class="cls-7" d="M197.32,146.14c0-1.37-.69-2.49-1.53-2.49.84,0,1.53-1.11,1.53-2.48v-8.93c0-1.38-.69-2.49-1.53-2.49.84,0,1.53-1.11,1.53-2.48v-8.94c0-1.37-.69-2.48-1.53-2.48H193c-.85,0-1.53,1.11-1.53,2.48v8.94c0,1.37.68,2.48,1.53,2.48-.85,0-1.53,1.11-1.53,2.49v8.93c0,1.37.68,2.48,1.53,2.48-.85,0-1.53,1.12-1.53,2.49v11.42h5.81Z"/><line class="cls-8" x1="180.46" y1="158.97" x2="208.39" y2="158.97"/><path class="cls-7" d="M171.35,248.52c3.44,0,6.88-.63,10.32-1h0Z"/><path class="cls-7" d="M189,247.52c3.43.34,6.86,1,10.29,1Z"/><path class="cls-7" d="M185.48,247.33a37.43,37.43,0,0,0-3.81.22c0,33.32,1,67.61,1,100.93,0,1,1.88,9.93,2.68,9.93,1,0,2.68-7.78,2.68-9.83l1-101.06h0C187.82,247.41,186.65,247.33,185.48,247.33Z"/><path class="cls-7" d="M188.22,235.91c0-1.37-.69-2.48-1.53-2.48.84,0,1.53-1.11,1.53-2.48V222c0-1.37-.69-2.48-1.53-2.48.84,0,1.53-1.11,1.53-2.48v-8.94c0-1.37-.69-2.48-1.53-2.48h-2.75c-.85,0-1.53,1.11-1.53,2.48v8.94c0,1.37.68,2.48,1.53,2.48-.85,0-1.53,1.11-1.53,2.48V231c0,1.37.68,2.48,1.53,2.48-.85,0-1.53,1.11-1.53,2.48v11.42h5.81Z"/><line class="cls-8" x1="171.36" y1="248.74" x2="199.29" y2="248.74"/><path class="cls-7" d="M219.09,168.22c3.3,1,6.78,1.36,10.17,2h0Z"/><path class="cls-7" d="M236.28,172.3c3.2,1.3,6.3,2.92,9.59,3.9Z"/><path class="cls-7" d="M233,171.12c-1.22-.36-2.47-.64-3.72-.88-9.42,31.94-18.21,65.09-27.64,97-.31,1-1,10.05-.24,10.28.94.28,4.77-6.69,5.35-8.65l29.53-96.62h0A35,35,0,0,0,233,171.12Z"/><path class="cls-7" d="M238.83,161c.39-1.31,0-2.57-.76-2.82.81.25,1.78-.62,2.17-1.94l2.53-8.57c.39-1.31,0-2.57-.77-2.81.81.24,1.79-.63,2.17-1.95l2.53-8.56c.39-1.32.05-2.58-.76-2.82l-2.64-.79c-.81-.24-1.78.63-2.17,1.95l-2.53,8.56c-.38,1.32,0,2.58.77,2.82-.81-.24-1.78.63-2.17,1.95l-2.53,8.56c-.39,1.32,0,2.58.76,2.82-.81-.24-1.78.63-2.17,1.94l-3.23,11,2.95.88,2.62.78Z"/><line class="cls-8" x1="219.04" y1="168.44" x2="245.82" y2="176.42"/><path class="cls-7" d="M243,186.87c3.17,1.34,6.58,2.09,9.88,3.12h0Z"/><path class="cls-7" d="M259.64,192.81c3,1.64,5.95,3.59,9.11,4.92Z"/><path class="cls-7" d="M256.49,191.27c-1.18-.49-2.39-.91-3.61-1.28-12.83,30.72-25.18,62.7-38,93.42-.42.95-2.1,9.89-1.36,10.2.91.38,5.47-6.13,6.26-8l39.87-92.8h0C258.61,192.25,257.56,191.73,256.49,191.27Z"/><path class="cls-7" d="M263.41,181.81c.53-1.27.33-2.56-.45-2.89.78.33,1.84-.43,2.37-1.69l3.44-8.24c.53-1.26.33-2.55-.45-2.88.78.33,1.84-.43,2.37-1.7l3.44-8.23c.53-1.27.33-2.56-.45-2.89l-2.53-1.07c-.78-.33-1.84.43-2.37,1.7l-3.45,8.23c-.53,1.27-.32,2.56.46,2.89-.78-.33-1.85.43-2.37,1.69L260,175c-.53,1.26-.33,2.56.45,2.88-.78-.32-1.84.43-2.37,1.7l-4.4,10.53,2.84,1.19,2.52,1.07Z"/><line class="cls-8" x1="242.92" y1="187.08" x2="268.67" y2="197.95"/><path class="cls-7" d="M269.58,206.06c2.9,1.86,6.13,3.19,9.21,4.76h0Z"/><path class="cls-7" d="M285,214.75c2.71,2.14,5.25,4.55,8.14,6.4Z"/><path class="cls-7" d="M282.13,212.7c-1.08-.69-2.2-1.3-3.34-1.88-17.84,28.09-35.4,57.51-53.26,85.59-.57.87-3.73,9.39-3.06,9.82.83.53,6.43-5.11,7.52-6.83l55-84.66h0C284.05,214,283.11,213.33,282.13,212.7Z"/><path class="cls-7" d="M290.55,204.55c.73-1.15.75-2.46,0-2.92.71.46,1.88-.11,2.62-1.26l4.79-7.53c.73-1.16.75-2.47,0-2.92.71.45,1.88-.11,2.62-1.27l4.78-7.53c.74-1.16.76-2.46,0-2.92l-2.31-1.49c-.71-.45-1.89.11-2.62,1.27l-4.79,7.53c-.73,1.16-.75,2.46,0,2.92-.71-.46-1.89.11-2.62,1.27l-4.79,7.53c-.73,1.15-.75,2.46,0,2.92-.71-.46-1.88.11-2.62,1.26L279.53,211l2.6,1.66,2.3,1.48Z"/><line class="cls-8" x1="269.47" y1="206.26" x2="293" y2="221.35"/><path class="cls-9" d="M147.65,149.06c4.49,0,9-.76,13.47-1.18h0Z"/><path class="cls-9" d="M170.68,147.85c4.48.41,9,1.21,13.44,1.21Z"/><path class="cls-9" d="M166.1,147.62c-1.66,0-3.32.11-5,.26,0,40.32,1.26,81.81,1.26,122.12,0,1.26,2.45,12,3.5,12,1.29,0,3.5-9.41,3.5-11.89l1.27-122.28h0C169.15,147.72,167.63,147.62,166.1,147.62Z"/><path class="cls-9" d="M169.68,133.81c0-1.66-.9-3-2-3,1.1,0,2-1.34,2-3V117c0-1.66-.9-3-2-3,1.1,0,2-1.34,2-3V100.17c0-1.66-.9-3-2-3h-3.59c-1.11,0-2,1.35-2,3V111c0,1.66.89,3,2,3-1.11,0-2,1.35-2,3V127.8c0,1.66.89,3,2,3-1.11,0-2,1.35-2,3v13.81h7.59Z"/><line class="cls-10" x1="147.66" y1="149.33" x2="184.13" y2="149.33"/><polygon class="cls-11" points="83.05 276.19 116.31 276.19 116.31 331.82 217.05 331.82 217.05 274.54 252.78 273.98 255.8 335.9 313.6 436.22 313.6 460.38 27.37 460.38 25.95 435.86 81.66 333.77 81.66 276.19 83.05 276.19"/><path class="cls-12" d="M249.74,360c1.41-2.05,2.82-4.1,4.25-6.13l-8.22-5.82c3.77,2.67,7.95,4.75,11.72,7.41s6.95,5.8,10.63,8.4L259.89,358,255,364.75Z"/><path class="cls-12" d="M263.65,351.35a1.5,1.5,0,0,1,1.73-2.46l3.1-4.43a1.51,1.51,0,0,1,1.73-2.47l3.11-4.43a1.52,1.52,0,0,0-.37-2.1l-2.19-1.55a1.49,1.49,0,0,0-2.09.36l-3.11,4.43a1.51,1.51,0,0,1-1.73,2.47l-3.1,4.43a1.5,1.5,0,0,1-1.73,2.46l-4,5.66,2.46,1.74,2.19,1.55Z"/><path class="cls-12" d="M38.06,427.28c-1.4-2-2.79-4.12-4.17-6.19l-8.41,5.54c3.86-2.54,7.32-5.68,11.17-8.22s7.93-4.36,11.7-6.84l-8.42,5.54,4.48,7Z"/><path class="cls-12" d="M35.07,411.18a1.51,1.51,0,0,0-2.09-.43,1.5,1.5,0,0,0,.42-2.08l-3-4.51a1.5,1.5,0,0,0-2.08-.42,1.5,1.5,0,0,0,.42-2.08l-3-4.51a1.5,1.5,0,0,0-2.08-.42l-2.25,1.48a1.49,1.49,0,0,0-.42,2.08l3,4.5a1.51,1.51,0,0,0,2.09.43,1.5,1.5,0,0,0-.42,2.08l3,4.51a1.51,1.51,0,0,0,2.09.42,1.5,1.5,0,0,0-.42,2.08l3.83,5.76,2.51-1.66,2.25-1.48Z"/><path class="cls-12" d="M277.63,380.13q3-2.17,6.09-4.32L278,367.54c2.64,3.8,5.86,7.17,8.49,11s4.56,7.82,7.13,11.52l-5.75-8.27L281,386.4Z"/><path class="cls-12" d="M293.66,376.74a1.5,1.5,0,1,1,2.46-1.72l4.43-3.11a1.5,1.5,0,0,1,2.47-1.72l4.43-3.11a1.51,1.51,0,0,0,.37-2.1l-1.53-2.21a1.51,1.51,0,0,0-2.09-.37l-4.43,3.11a1.5,1.5,0,0,1-2.47,1.72l-4.43,3.11a1.51,1.51,0,0,0-.37,2.1,1.49,1.49,0,0,0-2.09-.37l-5.66,4,1.71,2.48,1.54,2.2Z"/><path class="cls-12" d="M64.78,396.72q-1.85-3.24-3.65-6.51l-8.83,4.84c4.05-2.22,7.74-5.06,11.8-7.29s8.26-3.7,12.21-5.87l-8.84,4.84,3.9,7.32Z"/><path class="cls-12" d="M63.1,380.42a1.51,1.51,0,0,0-2-.59,1.49,1.49,0,0,0,.58-2L59,373.06a1.5,1.5,0,0,0-2-.6,1.49,1.49,0,0,0,.59-2L55,365.69a1.51,1.51,0,0,0-2.05-.59l-2.36,1.29a1.5,1.5,0,0,0-.59,2l2.62,4.73a1.51,1.51,0,0,0,2,.6,1.5,1.5,0,0,0-.59,2l2.62,4.73a1.5,1.5,0,0,0,2,.59,1.5,1.5,0,0,0-.58,2l3.34,6,2.65-1.45,2.35-1.29Z"/><path class="cls-13" d="M111.14,427.25c-2-2.78-4.58-5.19-6.89-7.77h0Z"/><path class="cls-13" d="M99.9,413.57c-1.77-3-3.27-6.14-5.3-8.92Z"/><path class="cls-13" d="M101.82,416.52a38.2,38.2,0,0,0,2.43,3c26.72-19.74,53.67-40.82,80.4-60.55.85-.6,6.86-7.39,6.39-8s-7.83,2.43-9.47,3.64L99.91,413.59v0C100.5,414.58,101.13,415.57,101.82,416.52Z"/><path class="cls-13" d="M91,421.07c-1.1.81-1.58,2-1.08,2.71-.5-.69-1.8-.59-2.9.23l-7.17,5.29c-1.1.81-1.59,2-1.08,2.71-.51-.69-1.8-.58-2.9.23l-7.17,5.29c-1.1.81-1.59,2-1.09,2.71l1.63,2.22c.5.69,1.8.58,2.9-.23l7.17-5.29c1.1-.81,1.58-2,1.08-2.71.5.69,1.8.58,2.9-.23l7.17-5.29c1.1-.81,1.59-2,1.09-2.71.5.68,1.79.58,2.89-.23l9.17-6.76-1.82-2.49-1.62-2.22Z"/><line class="cls-13" x1="111.31" y1="427.11" x2="94.78" y2="404.51"/><path class="cls-13" d="M84.52,327.17c3.45,0,6.89-.58,10.33-.89h0Z"/><path class="cls-13" d="M102.17,326.31c3.42.36,6.85,1.05,10.28,1.08Z"/><path class="cls-13" d="M98.66,326.09a37.38,37.38,0,0,0-3.81.19c-.25,33.31.44,67.61.18,100.93,0,1,1.8,10,2.6,10,1,0,2.74-7.75,2.76-9.8l1.76-101.05h0C101,326.19,99.83,326.1,98.66,326.09Z"/><path class="cls-13" d="M101.49,314.69c0-1.37-.67-2.48-1.51-2.49.84,0,1.54-1.1,1.55-2.47l.07-8.94c0-1.37-.67-2.48-1.51-2.49.84,0,1.54-1.1,1.55-2.47l.07-8.94c0-1.37-.67-2.49-1.52-2.49l-2.74,0c-.85,0-1.54,1.1-1.55,2.47l-.07,8.93c0,1.37.66,2.49,1.51,2.5-.85,0-1.54,1.1-1.55,2.47l-.07,8.93c0,1.37.66,2.49,1.51,2.5-.85,0-1.54,1.1-1.55,2.47l-.09,11.42,3.07,0,2.74,0Z"/><line class="cls-13" x1="84.53" y1="327.39" x2="112.46" y2="327.61"/><path class="cls-13" d="M222.32,327.17c3.44,0,6.88-.58,10.32-.89h0Z"/><path class="cls-13" d="M240,326.31c3.43.36,6.85,1.05,10.28,1.08Z"/><path class="cls-13" d="M236.46,326.09a37.44,37.44,0,0,0-3.82.19c-.25,33.31.44,67.61.18,100.93,0,1,1.8,10,2.6,10,1,0,2.74-7.75,2.76-9.8l1.76-101.05h0C238.79,326.19,237.62,326.1,236.46,326.09Z"/><path class="cls-13" d="M239.28,314.69c0-1.37-.67-2.48-1.51-2.49.84,0,1.54-1.1,1.55-2.47l.07-8.94c0-1.37-.67-2.48-1.51-2.49.84,0,1.54-1.1,1.55-2.47l.07-8.94c0-1.37-.67-2.49-1.51-2.49l-2.75,0c-.85,0-1.54,1.1-1.55,2.47l-.07,8.93c0,1.37.66,2.49,1.51,2.5-.85,0-1.54,1.1-1.55,2.47l-.07,8.93c0,1.37.67,2.49,1.51,2.5-.84,0-1.54,1.1-1.55,2.47l-.09,11.42,3.08,0,2.73,0Z"/><line class="cls-13" x1="222.33" y1="327.39" x2="250.25" y2="327.61"/><path class="cls-13" d="M250.83,410.54c-1.73,3-2.91,6.28-4.35,9.44h0Z"/><path class="cls-13" d="M242.83,426.35c-2,2.81-4.31,5.46-6,8.43Z"/><path class="cls-13" d="M244.75,423.4a37.76,37.76,0,0,0,1.73-3.42c-28.68-16.73-58.68-33.14-87.36-49.88-.89-.54-9.49-3.36-9.9-2.66-.49.85,5.35,6.23,7.11,7.26l86.51,51.63v0C243.51,425.39,244.16,424.42,244.75,423.4Z"/><path class="cls-13" d="M253.21,431.52c1.18.69,2.48.65,2.9-.08-.42.73.19,1.88,1.37,2.57l7.69,4.49c1.18.69,2.48.66,2.91-.08-.43.74.19,1.89,1.37,2.58l7.69,4.49c1.18.69,2.48.65,2.9-.08l1.39-2.39c.42-.73-.19-1.89-1.37-2.58L272.37,436c-1.18-.69-2.49-.65-2.91.09.42-.74-.19-1.89-1.37-2.58L260.4,429c-1.18-.69-2.48-.65-2.91.08.43-.73-.18-1.89-1.36-2.58l-9.83-5.74-1.55,2.67-1.37,2.38Z"/><line class="cls-13" x1="250.63" y1="410.43" x2="236.6" y2="434.68"/></g></g></g></svg>