<svg xmlns="http://www.w3.org/2000/svg" viewBox="0 0 327.61 461.87"><defs><style>.cls-1{fill:#a7f2e4;stroke:#a7f2e4;stroke-width:1.08px;}.cls-1,.cls-10,.cls-12,.cls-13,.cls-2,.cls-3,.cls-4,.cls-5,.cls-6,.cls-7,.cls-8,.cls-9{stroke-miterlimit:10;}.cls-11,.cls-2,.cls-3,.cls-5,.cls-7,.cls-9{fill:#010101;}.cls-10,.cls-2,.cls-3,.cls-4,.cls-5,.cls-6,.cls-7,.cls-8,.cls-9{stroke:#010101;}.cls-12,.cls-2{stroke-width:1px;}.cls-3,.cls-4{stroke-width:1.23px;}.cls-10,.cls-4,.cls-6,.cls-8{fill:none;}.cls-5,.cls-6{stroke-width:1.21px;}.cls-13,.cls-7,.cls-8{stroke-width:0.97px;}.cls-10,.cls-9{stroke-width:1.23px;}.cls-12,.cls-13{fill:#2a3331;stroke:#2a3331;}</style></defs><g id="Layer_2" data-name="Layer 2"><g id="chair"><g id="chair-2" data-name="chair"><path class="cls-1" d="M76,336.37,28.67,224.51l3.17-2.2-3.17-11.94H35.4l-.71-6.31,5.62-1.58L35.4,188,40,179.74l5.37-1.58-7.48-14.53,2.81-5L41,146.27l6.31,2.21,2.1-2.21-1.05-3.48-.7-4.42H58.54l6,1.58L50.83,114.76l22.44,22.35L58.1,103.24l31.66,37-29.64-54,32.44,36L69.06,72.69l.35-5.22,4.21,2.69L104.84,127l-21-71.28,1.76-13.66,27.35,80.52-6.66-51.47L97.82,38l2.46-7.89,30.86,86.21,2.1-13L122.37,39.21,121.67,20l4.91,11.68L137.45,92l5.61,14.53,2.11-13.9-7-74.52,2.11-11.69,4.91,11.37,9.12,85.58L162.7,127,158.14,9.53l1.76-7.9,4.56,9.48,4.21,67.26,4,41.69,5.45-13,3.41-98.76L189.36,19l-2.81,95.74L193.92,103l16.83-80.52,3.86-5.69v12l-11.92,87.48,23.14-88.74,2.11,8.53L219.52,104l4.56,1.26L243,36.69l-4.56,58.42,21-35.41s-1.05,8.88,0,9.83-11.92,39.79-11.92,39.79l21.74-24.63-4.21,14.84-13,35.05L277,103l-13.33,34.42,16.13-16.73L266.51,152.9l22.8-18.63,1.4,5,3.51.63-9.82,22.42,1.4,8.21L302.29,158l-13.68,20.21v3.9l9-.92v3.78l2,3.14v5.21L292,206l-.7,8.49,14.82-8.17L304,214.14l3.53-1.25-24.35,37.7.7,10.68-7.76,8.49-4.59,21.05-22.94,45.56Z"/><path class="cls-2" d="M279.22,192.4c-3.5-3-7.46-5.49-11-8.5l7.63,6.57c-13.09,15.35-25.45,31.33-38.55,46.67-.42.46-2.51,5.77-1.91,6.28s5.05-1.86,5.85-2.8l40.1-45.42,7.63,6.58C285.59,198.83,282.63,195.34,279.22,192.4Z"/><path class="cls-2" d="M285.74,188.89a1.5,1.5,0,0,0-.16-2.12,1.5,1.5,0,0,0,2.12-.16l3.51-4.12a1.5,1.5,0,0,0-.16-2.12,1.49,1.49,0,0,0,2.11-.16l3.52-4.12a1.51,1.51,0,0,0-.17-2.12l-2-1.76a1.49,1.49,0,0,0-2.11.16l-3.52,4.12a1.51,1.51,0,0,0,.17,2.12,1.5,1.5,0,0,0-2.12.16l-3.51,4.12a1.5,1.5,0,0,0,.16,2.12,1.49,1.49,0,0,0-2.11.16l-4.49,5.26,2.28,2,2,1.75Z"/><path class="cls-2" d="M23.62,248.43c-2.17,4.09-3.7,8.51-5.87,12.61l4.72-8.92c17.77,9.49,36,18.12,53.75,27.61.55.32,6.16,1.21,6.53.51.45-.86-2.91-4.54-4-5.13L25.87,245.72l4.73-8.92C28.48,240.78,25.73,244.44,23.62,248.43Z"/><path class="cls-2" d="M18.79,242.8a1.5,1.5,0,0,0-2,.62,1.5,1.5,0,0,0-.62-2l-4.76-2.55a1.5,1.5,0,0,0-2,.62,1.51,1.51,0,0,0-.62-2L4,234.88a1.49,1.49,0,0,0-2,.62L.68,237.88a1.51,1.51,0,0,0,.62,2l4.76,2.55a1.5,1.5,0,0,0,2-.62,1.5,1.5,0,0,0,.62,2l4.76,2.55a1.5,1.5,0,0,0,2-.62,1.5,1.5,0,0,0,.62,2l6.08,3.26,1.42-2.67,1.26-2.37Z"/><path class="cls-2" d="M257.74,145.66c-4-2.32-8.33-4-12.32-6.34l8.7,5.06c-10.09,17.49-19.33,35.47-29.42,53-.33.54-1.42,6.14-.74,6.54s4.62-2.76,5.24-3.83l31.17-52,8.7,5.07C265.18,150.82,261.64,147.93,257.74,145.66Z"/><path class="cls-2" d="M263.52,141A1.51,1.51,0,0,0,263,139a1.49,1.49,0,0,0,2-.54l2.7-4.69a1.51,1.51,0,0,0-.54-2.06,1.5,1.5,0,0,0,2.05-.55l2.7-4.69a1.51,1.51,0,0,0-.54-2.06L269.07,123a1.49,1.49,0,0,0-2.05.55l-2.71,4.69a1.5,1.5,0,0,0,.55,2.05,1.5,1.5,0,0,0-2.05.55l-2.71,4.69a1.52,1.52,0,0,0,.55,2.06,1.49,1.49,0,0,0-2,.55l-3.46,6,2.6,1.51,2.32,1.35Z"/><path class="cls-2" d="M110.75,147c-4.19,1.94-8.07,4.54-12.26,6.48l9.13-4.23c8.45,18.34,17.77,36.28,26.21,54.62.24.58,4.18,4.7,4.89,4.37.88-.41.42-5.39-.1-6.52L114.18,146.2l9.13-4.23C119.23,143.86,114.84,145.11,110.75,147Z"/><path class="cls-2" d="M110.29,139.59a1.49,1.49,0,0,0-2-.74,1.51,1.51,0,0,0,.74-2l-2.27-4.92a1.5,1.5,0,0,0-2-.74,1.5,1.5,0,0,0,.74-2l-2.26-4.93a1.5,1.5,0,0,0-2-.73l-2.45,1.13a1.51,1.51,0,0,0-.73,2l2.26,4.92a1.49,1.49,0,0,0,2,.74,1.51,1.51,0,0,0-.73,2l2.26,4.92a1.5,1.5,0,0,0,2,.73,1.51,1.51,0,0,0-.73,2l2.89,6.29,2.73-1.27,2.43-1.13Z"/><path class="cls-2" d="M133.19,285.53c-4.19,1.94-8.07,4.54-12.26,6.48l9.13-4.23c8.44,18.34,17.77,36.28,26.2,54.62.25.58,4.18,4.7,4.9,4.37.87-.41.41-5.39-.11-6.52l-24.43-55.52,9.13-4.23C141.67,282.39,137.27,283.64,133.19,285.53Z"/><path class="cls-2" d="M132.73,278.12a1.51,1.51,0,0,1-1.26-2.74l-2.26-4.92a1.5,1.5,0,0,0-2-.74,1.5,1.5,0,0,0,.73-2l-2.26-4.93a1.5,1.5,0,0,0-2-.73l-2.44,1.13a1.51,1.51,0,0,0-.73,2l2.26,4.92a1.49,1.49,0,0,0,2,.74,1.51,1.51,0,0,0-.73,2l2.26,4.92a1.5,1.5,0,0,0,2,.73,1.52,1.52,0,0,0-.74,2l2.9,6.29,2.73-1.27,2.43-1.13Z"/><path class="cls-2" d="M200.86,287.8c-4.06-2.21-8.46-3.77-12.52-6l8.85,4.8c-9.55,17.79-18.25,36-27.82,53.82-.31.55-1.23,6.18-.54,6.55.85.46,4.54-2.89,5.13-4l29.59-52.93,8.85,4.81C208.44,292.73,204.81,289.94,200.86,287.8Z"/><path class="cls-2" d="M206.49,283a1.51,1.51,0,1,1,1.43-2.65l2.56-4.77a1.51,1.51,0,1,1,1.43-2.65l2.56-4.77a1.51,1.51,0,0,0-.61-2l-2.36-1.28a1.49,1.49,0,0,0-2,.61l-2.57,4.77a1.51,1.51,0,0,0,.61,2,1.48,1.48,0,0,0-2,.61l-2.57,4.77a1.51,1.51,0,0,0,.61,2,1.48,1.48,0,0,0-2,.61l-3.28,6.09,2.65,1.44,2.35,1.27Z"/><path class="cls-2" d="M190.76,132.58c-4.37-1.48-9-2.27-13.34-3.75l9.53,3.22c-6.4,19.16-11.88,38.63-18.29,57.79-.22.59-.17,6.3.58,6.55.91.31,4-3.63,4.37-4.81l20.19-57.22,9.54,3.22C199.07,136.14,195,134,190.76,132.58Z"/><path class="cls-2" d="M195.5,126.87a1.52,1.52,0,0,0-.94-1.91,1.5,1.5,0,0,0,1.9-.95l1.71-5.13a1.5,1.5,0,0,0-.94-1.91,1.5,1.5,0,0,0,1.9-1l1.72-5.14a1.51,1.51,0,0,0-.94-1.9l-2.55-.86a1.49,1.49,0,0,0-1.9.94l-1.72,5.14a1.51,1.51,0,0,0,.94,1.91,1.5,1.5,0,0,0-1.9,1l-1.72,5.13a1.51,1.51,0,0,0,.95,1.91,1.5,1.5,0,0,0-1.9,1l-2.2,6.56,2.85,1,2.54.85Z"/><path class="cls-2" d="M48.36,203.11c-2.18,4.09-3.71,8.51-5.89,12.6l4.74-8.91c17.75,9.51,36,18.17,53.71,27.69.55.31,6.16,1.21,6.53.51.45-.85-2.91-4.54-4-5.13L50.61,200.4l4.74-8.91C53.24,195.47,50.48,199.13,48.36,203.11Z"/><path class="cls-2" d="M43.54,197.48a1.49,1.49,0,0,0-2,.62,1.51,1.51,0,0,0-.62-2l-4.76-2.56a1.49,1.49,0,0,0-2,.62,1.52,1.52,0,0,0-.62-2l-4.76-2.55a1.5,1.5,0,0,0-2,.62l-1.27,2.38a1.51,1.51,0,0,0,.62,2l4.76,2.55a1.49,1.49,0,0,0,2-.61,1.5,1.5,0,0,0,.61,2l4.76,2.56a1.5,1.5,0,0,0,2-.62,1.52,1.52,0,0,0,.62,2l6.08,3.26,1.42-2.67,1.26-2.37Z"/><path class="cls-2" d="M289.49,344c-3.77-2.67-7.95-4.74-11.72-7.41l8.22,5.82c-11.58,16.53-22.36,33.62-33.94,50.14-.38.51-2,6-1.31,6.45s4.85-2.34,5.56-3.36l35.59-49.06,8.23,5.82C296.44,349.75,293.17,346.55,289.49,344Z"/><path class="cls-2" d="M295.65,339.84a1.5,1.5,0,0,1,1.73-2.46l3.1-4.43a1.51,1.51,0,0,1,1.73-2.47l3.11-4.43A1.52,1.52,0,0,0,305,324l-2.19-1.55a1.49,1.49,0,0,0-2.09.36l-3.11,4.43a1.51,1.51,0,0,1-1.73,2.47l-3.1,4.43a1.5,1.5,0,0,1-1.73,2.46l-4,5.66,2.46,1.74,2.19,1.55Z"/><path class="cls-2" d="M29,385.6c-2.77,3.71-5,7.84-7.73,11.54l6-8.07c16.09,12.12,32.77,23.47,48.86,35.61.49.39,5.9,2.14,6.37,1.51s-2.18-4.94-3.16-5.69L31.66,383.26l6.05-8.08C35,378.8,31.72,382,29,385.6Z"/><path class="cls-2" d="M25.12,379.29a1.49,1.49,0,0,0-2.1.3,1.51,1.51,0,0,0-.3-2.11l-4.32-3.26a1.5,1.5,0,0,0-2.09.3,1.51,1.51,0,0,0-.3-2.1l-4.32-3.26a1.5,1.5,0,0,0-2.1.3L8,371.62a1.5,1.5,0,0,0,.3,2.11L12.59,377a1.51,1.51,0,0,0,2.1-.3,1.5,1.5,0,0,0,.3,2.1l4.31,3.26a1.5,1.5,0,0,0,2.1-.3,1.52,1.52,0,0,0,.3,2.11L27.22,388,29,385.6l1.61-2.15Z"/><path class="cls-2" d="M306.28,394.71c-2.86-3.64-6.27-6.83-9.13-10.47l6.23,7.94c-15.79,12.52-31,25.81-46.79,38.32-.5.38-3.57,5.18-3.08,5.8s5.31-.85,6.28-1.62l48.06-36.81,6.23,7.94C311.3,402.26,309.07,398.26,306.28,394.71Z"/><path class="cls-2" d="M313.35,392.53a1.5,1.5,0,1,1,2.36-1.86l4.24-3.36a1.5,1.5,0,1,1,2.35-1.86l4.24-3.36a1.51,1.51,0,0,0,.25-2.11l-1.67-2.13a1.5,1.5,0,0,0-2.1-.25L318.78,381a1.52,1.52,0,0,0-.25,2.12,1.49,1.49,0,0,0-2.11-.25l-4.23,3.35a1.51,1.51,0,0,0-.25,2.12,1.49,1.49,0,0,0-2.11-.25l-5.41,4.29,1.86,2.37,1.66,2.11Z"/><path class="cls-2" d="M271,316.7c-3.77-2.67-8-4.75-11.72-7.42l8.22,5.82c-11.57,16.53-22.36,33.62-33.94,50.15-.38.5-1.95,6-1.31,6.44.79.55,4.85-2.34,5.56-3.36l35.6-49.05,8.22,5.81C278,322.49,274.72,319.3,271,316.7Z"/><path class="cls-2" d="M277.2,312.58a1.5,1.5,0,0,1,1.73-2.46l3.11-4.43a1.52,1.52,0,0,0-.37-2.1,1.49,1.49,0,0,0,2.09-.37l3.11-4.43a1.52,1.52,0,0,0-.36-2.1l-2.2-1.55a1.49,1.49,0,0,0-2.09.36l-3.11,4.44a1.51,1.51,0,0,0,.36,2.09,1.48,1.48,0,0,0-2.08.37l-3.11,4.43a1.5,1.5,0,0,1-1.73,2.46l-4,5.67L271,316.7l2.19,1.54Z"/><path class="cls-2" d="M55.54,337.25c-4.24,1.82-8.2,4.29-12.45,6.11l9.26-4C60.24,358,69,376.2,76.9,394.8c.23.58,4,4.81,4.77,4.51s.57-5.38.09-6.52L59,336.56l9.26-4C64.11,334.37,59.68,335.48,55.54,337.25Z"/><path class="cls-2" d="M55.31,329.83a1.5,1.5,0,0,0-2-.8,1.5,1.5,0,0,0,.79-2l-2.11-5a1.51,1.51,0,0,0-2-.8,1.5,1.5,0,0,0,.79-2l-2.11-5a1.51,1.51,0,0,0-2-.8l-2.47,1.06a1.51,1.51,0,0,0-.8,2l2.12,5a1.49,1.49,0,0,0,2,.79,1.52,1.52,0,0,0-.79,2l2.12,5a1.49,1.49,0,0,0,2,.8,1.51,1.51,0,0,0-.79,2l2.7,6.38,2.77-1.19L58,336.2Z"/><path class="cls-2" d="M61.72,304.29c-4,2.37-7.55,5.36-11.52,7.74l8.64-5.18c10.32,17.35,21.47,34.2,31.78,51.56.31.55,4.65,4.22,5.33,3.82s-.16-5.4-.79-6.47L65,303.13,73.68,298C69.82,300.27,65.58,302,61.72,304.29Z"/><path class="cls-2" d="M60.48,297a1.49,1.49,0,0,0-2-.52,1.51,1.51,0,0,0,.52-2.06l-2.77-4.66a1.49,1.49,0,0,0-2-.52,1.51,1.51,0,0,0,.51-2.07l-2.76-4.65a1.5,1.5,0,0,0-2.06-.52l-2.31,1.38a1.52,1.52,0,0,0-.52,2.07l2.77,4.65a1.49,1.49,0,0,0,2.06.52,1.5,1.5,0,0,0-.52,2.07l2.76,4.65a1.49,1.49,0,0,0,2.06.52,1.51,1.51,0,0,0-.52,2.07l3.53,5.95,2.59-1.55,2.3-1.38Z"/><path class="cls-3" d="M72,162c4.34-1.16,8.48-3.07,12.71-4.64h0Z"/><path class="cls-3" d="M94,154.8c4.44-.77,9-1.15,13.3-2.31Z"/><path class="cls-3" d="M89.48,155.76c-1.6.44-3.18,1-4.74,1.55,10.46,39.22,22.42,79.27,32.86,118.5.31,1.23,5.49,11.06,6.5,10.78,1.24-.33.94-10.06.3-12.47L93.94,154.81h0C92.45,155.06,91,155.37,89.48,155.76Z"/><path class="cls-3" d="M89.36,141.39c-.43-1.61-1.65-2.69-2.72-2.4,1.07-.29,1.59-1.83,1.16-3.44L85,125c-.43-1.62-1.65-2.69-2.71-2.41,1.06-.28,1.58-1.82,1.15-3.44l-2.8-10.52c-.43-1.61-1.65-2.69-2.71-2.4l-3.47.93c-1.07.28-1.58,1.83-1.15,3.44l2.8,10.52c.43,1.61,1.64,2.69,2.71,2.4-1.07.29-1.58,1.83-1.15,3.45l2.8,10.52c.43,1.61,1.64,2.69,2.71,2.4-1.07.29-1.59,1.83-1.16,3.44l3.59,13.45,3.87-1.05,3.46-.92Z"/><line class="cls-4" x1="72.11" y1="162.21" x2="107.35" y2="152.75"/><path class="cls-5" d="M199.17,146c4.41.84,9,.94,13.45,1.38h0Z"/><path class="cls-5" d="M222,149.18c4.33,1.22,8.59,2.83,13,3.67Z"/><path class="cls-5" d="M217.56,148.1c-1.63-.31-3.28-.52-4.94-.68-7.31,38.88-13.62,79.13-20.94,118-.25,1.2.23,12,1.26,12.24,1.26.24,5.15-8.42,5.6-10.81L222,149.17h0C220.54,148.76,219.06,148.38,217.56,148.1Z"/><path class="cls-5" d="M223.58,135.44c.3-1.6-.33-3.06-1.42-3.27,1.09.21,2.21-.92,2.51-2.52l2-10.43c.3-1.6-.34-3.07-1.42-3.27,1.08.2,2.21-.93,2.51-2.53l2-10.42c.3-1.6-.33-3.07-1.42-3.27l-3.53-.67c-1.08-.21-2.21.92-2.51,2.52l-2,10.43c-.3,1.6.33,3.06,1.42,3.27-1.09-.21-2.21.92-2.51,2.52l-2,10.43c-.31,1.6.33,3.06,1.42,3.27-1.09-.21-2.21.92-2.52,2.52l-2.5,13.33,3.94.75,3.51.67Z"/><line class="cls-6" x1="199.13" y1="146.31" x2="234.97" y2="153.11"/><path class="cls-7" d="M130.29,143.48c3.45,0,6.88-.63,10.32-1h0Z"/><path class="cls-7" d="M148.34,142.49c3.43.33,6.86,1,10.29,1Z"/><path class="cls-7" d="M145.1,142.3a37.61,37.61,0,0,0-3.82.21c0,33.32,1,67.61,1,100.93,0,1,1.88,9.93,2.68,9.93,1,0,2.68-7.78,2.68-9.82l1-101.06h0A34.2,34.2,0,0,0,145.1,142.3Z"/><path class="cls-7" d="M147.61,130.87c0-1.38-.71-2.5-1.58-2.5.87,0,1.58-1.12,1.58-2.5v-9c0-1.38-.71-2.5-1.58-2.5.87,0,1.58-1.12,1.58-2.5v-9c0-1.38-.71-2.5-1.58-2.5h-2.84c-.87,0-1.58,1.12-1.58,2.5v9c0,1.38.71,2.5,1.58,2.5-.87,0-1.58,1.12-1.58,2.5v9c0,1.38.71,2.5,1.58,2.5-.87,0-1.58,1.12-1.58,2.5v11.5h6Z"/><line class="cls-8" x1="131.11" y1="143.37" x2="159.11" y2="143.37"/><path class="cls-7" d="M141.29,240.83c3.45,0,6.88-.63,10.32-1h0Z"/><path class="cls-7" d="M159.31,239.83c3.43.34,6.86,1,10.29,1Z"/><path class="cls-7" d="M156.1,239.64a37.63,37.63,0,0,0-3.82.22c0,33.32,1,67.61,1,100.93,0,1,1.88,9.93,2.68,9.93,1,0,2.68-7.78,2.68-9.82l1-101.07h0C158.43,239.72,157.27,239.64,156.1,239.64Z"/><path class="cls-7" d="M158.61,227.87c0-1.38-.71-2.5-1.58-2.5.87,0,1.58-1.12,1.58-2.5v-9c0-1.38-.71-2.5-1.58-2.5.87,0,1.58-1.12,1.58-2.5v-9c0-1.38-.71-2.5-1.58-2.5h-2.84c-.87,0-1.58,1.12-1.58,2.5v9c0,1.38.71,2.5,1.58,2.5-.87,0-1.58,1.12-1.58,2.5v9c0,1.38.71,2.5,1.58,2.5-.87,0-1.58,1.12-1.58,2.5v11.5h6Z"/><line class="cls-8" x1="142.11" y1="241.37" x2="170.11" y2="241.37"/><path class="cls-7" d="M51.83,186.89c3.24-1.17,6.26-2.94,9.38-4.43h0Z"/><path class="cls-7" d="M68.08,179.94c3.34-.86,6.8-1.41,10-2.58Z"/><path class="cls-7" d="M64.73,181c-1.2.44-2.37,1-3.52,1.51,11.28,31.33,23.77,63.26,35,94.6.34,1,5.13,8.7,5.88,8.42.93-.33-.11-8.23-.8-10.15L68.06,179.94h0C67,180.23,65.82,180.56,64.73,181Z"/><path class="cls-7" d="M63.44,169.28c-.47-1.29-1.49-2.1-2.28-1.81.79-.29,1.06-1.57.6-2.86l-3-8.4c-.47-1.29-1.49-2.11-2.28-1.82.79-.29,1.06-1.56.6-2.85l-3-8.41c-.46-1.29-1.48-2.1-2.28-1.81l-2.58.94c-.8.28-1.06,1.56-.6,2.85l3,8.41c.47,1.29,1.49,2.1,2.28,1.81-.79.29-1.06,1.57-.6,2.86l3,8.4c.47,1.29,1.49,2.1,2.28,1.82-.79.28-1.06,1.56-.6,2.85L61.83,182l2.9-1.05L67.3,180Z"/><line class="cls-8" x1="51.92" y1="187.1" x2="78.19" y2="177.57"/><path class="cls-7" d="M41.65,178.84c2.73-2.1,5.08-4.7,7.6-7.07h0Z"/><path class="cls-7" d="M55.05,167.28c2.92-1.82,6.05-3.4,8.77-5.49Z"/><path class="cls-7" d="M52.15,169.27c-1,.78-2,1.63-2.9,2.5,20.18,26.45,41.69,53.1,61.85,79.55.62.84,7.5,6.74,8.14,6.25s-2.58-7.81-3.81-9.43L55,167.29h0C54.05,167.91,53.08,168.56,52.15,169.27Z"/><path class="cls-7" d="M47.41,158.53c-.83-1.09-2-1.55-2.72-1,.67-.52.55-1.82-.28-2.91L39,147.5c-.83-1.09-2-1.56-2.72-1,.67-.52.54-1.82-.29-2.91l-5.41-7.09c-.83-1.09-2-1.56-2.71-1l-2.19,1.68c-.67.51-.54,1.82.29,2.9l5.41,7.1c.83,1.09,2.05,1.55,2.72,1-.67.51-.55,1.81.28,2.9l5.41,7.1c.83,1.09,2.05,1.55,2.72,1-.67.52-.54,1.82.29,2.91l6.91,9.07,2.44-1.88,2.17-1.67Z"/><line class="cls-8" x1="41.79" y1="179.01" x2="63.97" y2="161.96"/><path class="cls-7" d="M57.43,158.51c3.14-1.43,6-3.43,9-5.16h0Z"/><path class="cls-7" d="M73.08,150.29c3.27-1.12,6.66-1.94,9.78-3.36Z"/><path class="cls-7" d="M69.81,151.57a36.29,36.29,0,0,0-3.38,1.78c13.71,30.34,28.68,61.17,42.38,91.52.41.95,5.79,8.26,6.52,7.93.89-.41-.76-8.19-1.6-10.06L73.06,150.3h0C72,150.67,70.88,151.08,69.81,151.57Z"/><path class="cls-7" d="M67.61,140c-.56-1.25-1.64-2-2.41-1.62.77-.35.93-1.65.37-2.9l-3.67-8.14c-.57-1.25-1.65-2-2.42-1.62.77-.35.94-1.65.37-2.9l-3.67-8.14c-.56-1.25-1.65-2-2.42-1.62l-2.5,1.13c-.77.36-.94,1.65-.37,2.9l3.67,8.14c.57,1.25,1.65,2,2.42,1.63-.77.35-.94,1.64-.38,2.89l3.68,8.14c.56,1.25,1.64,2,2.41,1.63-.77.35-.93,1.64-.37,2.89L67,152.84l2.8-1.27,2.5-1.14Z"/><line class="cls-8" x1="57.54" y1="158.71" x2="82.97" y2="147.13"/><path class="cls-7" d="M93.32,168a102.69,102.69,0,0,0,9.35-4.49h0Z"/><path class="cls-7" d="M109.53,160.92c3.34-.88,6.79-1.45,10-2.64Z"/><path class="cls-7" d="M106.18,162c-1.2.44-2.36,1-3.51,1.52,11.45,31.27,24.13,63.13,35.57,94.4.34,1,5.17,8.67,5.93,8.4.92-.35-.16-8.23-.86-10.15l-33.8-95.2h0C108.4,161.21,107.27,161.55,106.18,162Z"/><path class="cls-7" d="M104.82,150.28c-.47-1.28-1.49-2.09-2.29-1.8.8-.29,1.06-1.57.59-2.86l-3.07-8.38c-.47-1.29-1.5-2.1-2.29-1.8.79-.3,1-1.58.58-2.86l-3.07-8.39c-.47-1.29-1.49-2.1-2.29-1.8l-2.57,1c-.8.29-1.06,1.57-.59,2.86l3.07,8.39c.47,1.29,1.5,2.09,2.29,1.8-.79.29-1.06,1.57-.58,2.86l3.06,8.39c.48,1.28,1.5,2.09,2.29,1.8-.79.29-1,1.57-.58,2.86L103.29,163l2.89-1.06,2.57-.95Z"/><line class="cls-8" x1="93.41" y1="168.17" x2="119.62" y2="158.49"/><path class="cls-7" d="M45.16,228.59c3.23-1.19,6.24-3,9.35-4.48h0Z"/><path class="cls-7" d="M61.37,221.56c3.34-.88,6.79-1.45,10-2.63Z"/><path class="cls-7" d="M58,222.59a37.54,37.54,0,0,0-3.51,1.52C66,255.39,78.62,287.25,90.05,318.52c.34,1,5.17,8.68,5.92,8.4.93-.34-.15-8.23-.85-10.15L61.35,221.56h0C60.24,221.85,59.11,222.19,58,222.59Z"/><path class="cls-7" d="M56.67,210.92c-.47-1.28-1.5-2.09-2.29-1.8.79-.29,1.06-1.57.58-2.86l-3.06-8.39c-.47-1.28-1.5-2.09-2.29-1.8.79-.29,1.06-1.57.58-2.86l-3.06-8.39c-.47-1.28-1.5-2.09-2.29-1.8l-2.58.95c-.79.3-1.06,1.58-.59,2.86l3.07,8.39c.47,1.29,1.5,2.1,2.29,1.8-.79.3-1.06,1.58-.59,2.86l3.07,8.39c.47,1.29,1.5,2.1,2.29,1.8-.79.3-1.06,1.58-.59,2.86l3.92,10.72L58,222.59l2.57-1Z"/><line class="cls-8" x1="45.25" y1="228.8" x2="71.46" y2="219.14"/><path class="cls-7" d="M23.31,241.05c2.67-2.18,4.93-4.84,7.39-7.29h0Z"/><path class="cls-7" d="M36.36,229.1c2.87-1.91,6-3.58,8.61-5.75Z"/><path class="cls-7" d="M33.52,231.17c-1,.81-1.92,1.69-2.82,2.59,21,25.83,43.24,51.82,64.18,77.67.64.81,7.7,6.51,8.32,6s-2.81-7.73-4.09-9.32l-62.77-79h0C35.38,229.75,34.43,230.43,33.52,231.17Z"/><path class="cls-7" d="M28.47,220.58c-.87-1.06-2.1-1.49-2.75-1,.65-.54.49-1.84-.37-2.9l-5.62-6.93c-.86-1.06-2.09-1.49-2.75-1,.66-.54.49-1.84-.37-2.9L11,199c-.86-1.06-2.09-1.49-2.75-1l-2.13,1.75c-.65.53-.49,1.83.38,2.89l5.61,6.93c.86,1.07,2.09,1.49,2.75,1-.66.53-.49,1.83.37,2.89l5.62,6.94c.86,1.06,2.09,1.49,2.75,1-.66.54-.49,1.83.37,2.9l7.18,8.85,2.38-2,2.12-1.73Z"/><line class="cls-8" x1="23.46" y1="241.22" x2="45.12" y2="223.52"/><path class="cls-7" d="M285.35,236.83c2.49,2.39,5.4,4.32,8.12,6.47h0Z"/><path class="cls-7" d="M298.77,248.37c2.24,2.63,4.26,5.49,6.74,7.87Z"/><path class="cls-7" d="M296.37,245.8a38.21,38.21,0,0,0-2.9-2.5c-23,24.05-45.9,49.46-68.87,73.51-.73.73-5.49,8.47-4.91,9s7.3-3.75,8.71-5.23l70.35-72.26,0,0C298,247.47,297.21,246.61,296.37,245.8Z"/><path class="cls-7" d="M306.22,239.46c.94-1,1.21-2.27.6-2.86.61.59,1.87.26,2.82-.73l6.16-6.45c.94-1,1.21-2.26.6-2.85.61.59,1.87.26,2.82-.73l6.16-6.45c.94-1,1.21-2.27.6-2.85l-2-1.91c-.61-.59-1.87-.27-2.82.72L315,221.8c-.95,1-1.22,2.27-.61,2.86-.61-.59-1.87-.26-2.82.72l-6.16,6.45c-.94,1-1.21,2.27-.6,2.86-.61-.59-1.87-.26-2.82.73l-7.87,8.24,2.22,2.14,2,1.9Z"/><line class="cls-8" x1="285.21" y1="237" x2="305.36" y2="256.41"/><path class="cls-7" d="M120.54,165.4c3.42-.36,6.78-1.34,10.16-2h0Z"/><path class="cls-7" d="M138,162.44c3.45,0,6.93.28,10.34-.07Z"/><path class="cls-7" d="M134.48,162.54a37.18,37.18,0,0,0-3.78.61c3.42,33.14,7.87,67.15,11.27,100.3.09,1,2.88,9.68,3.68,9.6,1-.1,1.87-8,1.66-10.05L138,162.37h0C136.81,162.38,135.64,162.42,134.48,162.54Z"/><path class="cls-7" d="M136,151.12c-.14-1.36-.93-2.4-1.77-2.31.84-.09,1.41-1.26,1.27-2.63l-.92-8.89c-.14-1.36-.93-2.4-1.77-2.31.84-.09,1.41-1.26,1.27-2.63l-.92-8.89c-.14-1.36-.93-2.39-1.77-2.31l-2.74.29c-.84.08-1.41,1.26-1.27,2.62l.92,8.89c.14,1.37.93,2.4,1.77,2.31-.84.09-1.41,1.27-1.27,2.63l.92,8.89c.14,1.36.93,2.4,1.77,2.31-.84.09-1.41,1.27-1.27,2.63l1.17,11.36,3.06-.32,2.72-.28Z"/><line class="cls-8" x1="120.58" y1="165.62" x2="148.35" y2="162.75"/><path class="cls-7" d="M180.29,160.23c3.45,0,6.88-.63,10.32-1h0Z"/><path class="cls-7" d="M198.09,159.24c3.43.33,6.86,1,10.29,1Z"/><path class="cls-7" d="M194.1,159.05a37.61,37.61,0,0,0-3.82.21c0,33.32,1,67.61,1,100.93,0,1,1.88,9.93,2.68,9.93,1,0,2.68-7.78,2.68-9.82l1-101.06h0A34.2,34.2,0,0,0,194.1,159.05Z"/><path class="cls-7" d="M197.61,147.87c0-1.38-.71-2.5-1.58-2.5.87,0,1.58-1.12,1.58-2.5v-9c0-1.38-.71-2.5-1.58-2.5.87,0,1.58-1.12,1.58-2.5v-9c0-1.38-.71-2.5-1.58-2.5h-2.84c-.87,0-1.58,1.12-1.58,2.5v9c0,1.38.71,2.5,1.58,2.5-.87,0-1.58,1.12-1.58,2.5v9c0,1.38.71,2.5,1.58,2.5-.87,0-1.58,1.12-1.58,2.5v11.5h6Z"/><line class="cls-8" x1="180.11" y1="160.37" x2="208.11" y2="160.37"/><path class="cls-7" d="M171.29,250c3.45,0,6.88-.63,10.32-1h0Z"/><path class="cls-7" d="M189,249c3.43.34,6.86,1,10.29,1Z"/><path class="cls-7" d="M185.1,248.82a37.63,37.63,0,0,0-3.82.22c0,33.31,1,67.61,1,100.92,0,1,1.88,9.94,2.68,9.94,1,0,2.68-7.78,2.68-9.83l1-101.06h0C187.43,248.9,186.27,248.82,185.1,248.82Z"/><path class="cls-7" d="M188.61,237.87c0-1.38-.71-2.5-1.58-2.5.87,0,1.58-1.12,1.58-2.5v-9c0-1.38-.71-2.5-1.58-2.5.87,0,1.58-1.12,1.58-2.5v-9c0-1.38-.71-2.5-1.58-2.5h-2.84c-.87,0-1.58,1.12-1.58,2.5v9c0,1.38.71,2.5,1.58,2.5-.87,0-1.58,1.12-1.58,2.5v9c0,1.38.71,2.5,1.58,2.5-.87,0-1.58,1.12-1.58,2.5v11.5h6Z"/><line class="cls-8" x1="171.11" y1="250.37" x2="199.11" y2="250.37"/><path class="cls-7" d="M219.09,169.71c3.3,1,6.78,1.36,10.17,2h0Z"/><path class="cls-7" d="M236.28,173.79c3.2,1.3,6.3,2.92,9.59,3.89Z"/><path class="cls-7" d="M233,172.61a36.53,36.53,0,0,0-3.72-.88c-9.42,31.94-18.21,65.09-27.64,97-.31,1-1,10.05-.24,10.28.94.28,4.77-6.69,5.35-8.65l29.53-96.62h0A35,35,0,0,0,233,172.61Z"/><path class="cls-7" d="M238.83,162.44c.39-1.31,0-2.57-.76-2.82.81.25,1.78-.62,2.17-1.94l2.53-8.57c.39-1.31,0-2.57-.77-2.81.81.24,1.79-.63,2.17-2l2.53-8.56c.39-1.32.05-2.58-.76-2.82l-2.64-.79c-.81-.24-1.78.63-2.17,1.95l-2.53,8.56c-.38,1.32,0,2.58.77,2.82-.81-.24-1.78.63-2.17,1.94L234.67,156c-.39,1.32,0,2.58.76,2.82-.81-.24-1.78.63-2.17,1.94L230,171.73l2.95.88,2.62.78Z"/><line class="cls-8" x1="219.04" y1="169.93" x2="245.82" y2="177.91"/><path class="cls-7" d="M243,188.36c3.17,1.34,6.58,2.09,9.88,3.12h0Z"/><path class="cls-7" d="M259.64,194.3c3,1.64,5.95,3.59,9.11,4.92Z"/><path class="cls-7" d="M256.49,192.76c-1.18-.49-2.39-.91-3.61-1.28-12.83,30.72-25.18,62.7-38,93.42-.42,1-2.1,9.89-1.36,10.2.91.38,5.47-6.13,6.26-8l39.87-92.8h0C258.61,193.74,257.56,193.21,256.49,192.76Z"/><path class="cls-7" d="M263.41,183.3c.53-1.27.33-2.56-.45-2.89.78.33,1.84-.43,2.37-1.69l3.44-8.24c.53-1.26.33-2.55-.45-2.88.78.33,1.84-.43,2.37-1.7l3.44-8.23c.53-1.27.33-2.56-.45-2.89l-2.53-1.07c-.78-.33-1.84.43-2.37,1.69l-3.45,8.24c-.53,1.27-.32,2.56.46,2.89-.78-.33-1.85.43-2.37,1.69L260,176.46c-.53,1.26-.33,2.56.45,2.88-.78-.32-1.84.43-2.37,1.7l-4.4,10.52,2.84,1.2,2.52,1.07Z"/><line class="cls-8" x1="242.92" y1="188.57" x2="268.67" y2="199.44"/><path class="cls-7" d="M269.58,207.55c2.9,1.86,6.13,3.19,9.21,4.76h0Z"/><path class="cls-7" d="M285,216.24c2.71,2.14,5.25,4.55,8.14,6.4Z"/><path class="cls-7" d="M282.13,214.19c-1.08-.69-2.2-1.3-3.34-1.88-17.84,28.09-35.4,57.51-53.26,85.59-.57.87-3.73,9.39-3.06,9.82.83.53,6.43-5.11,7.52-6.83l55-84.66h0C284.05,215.52,283.11,214.82,282.13,214.19Z"/><path class="cls-7" d="M290.55,206c.73-1.15.75-2.46,0-2.92.71.46,1.88-.11,2.62-1.26l4.79-7.53c.73-1.16.75-2.47,0-2.93.71.46,1.88-.1,2.62-1.26l4.78-7.53c.74-1.16.76-2.47,0-2.92l-2.31-1.49c-.71-.45-1.89.11-2.62,1.27L295.76,187c-.73,1.16-.75,2.46,0,2.92-.71-.46-1.89.11-2.62,1.26l-4.79,7.54c-.73,1.15-.75,2.46,0,2.92-.71-.46-1.88.11-2.62,1.26l-6.12,9.63,2.6,1.66,2.3,1.48Z"/><line class="cls-8" x1="269.47" y1="207.75" x2="293" y2="222.84"/><path class="cls-9" d="M148.14,150.55c4.49,0,9-.76,13.47-1.18h0Z"/><path class="cls-9" d="M170.68,149.34c4.48.41,9,1.21,13.44,1.21Z"/><path class="cls-9" d="M166.33,149.11c-1.66,0-3.32.11-5,.26,0,40.32,1.26,81.81,1.26,122.12,0,1.26,2.45,12,3.5,12,1.28,0,3.5-9.41,3.5-11.89l1.27-122.28h0C169.38,149.21,167.85,149.11,166.33,149.11Z"/><path class="cls-9" d="M169.61,135.68c0-1.64-.94-3-2.11-3,1.17,0,2.11-1.34,2.11-3V119c0-1.64-.94-3-2.11-3,1.17,0,2.11-1.33,2.11-3V102.35c0-1.65-.94-3-2.11-3h-3.78c-1.17,0-2.11,1.33-2.11,3v10.71c0,1.65.94,3,2.11,3-1.17,0-2.11,1.33-2.11,3v10.72c0,1.64.94,3,2.11,3-1.17,0-2.11,1.33-2.11,3v13.69h8Z"/><line class="cls-10" x1="148.11" y1="150.37" x2="184.11" y2="150.37"/><polygon class="cls-11" points="83.5 277.87 116.11 277.87 116.11 333.87 217.11 333.87 217.11 275.87 253 275.31 256.04 338 314.11 439.57 314.11 461.87 27.8 461.87 26.39 437.38 82.11 335.39 82.11 277.87 83.5 277.87"/><path class="cls-12" d="M249.74,361.49c1.41-2.05,2.82-4.1,4.25-6.13l-8.22-5.82c3.77,2.67,7.95,4.74,11.72,7.41s6.95,5.8,10.63,8.4l-8.23-5.82L255,366.24Z"/><path class="cls-12" d="M263.65,352.84a1.5,1.5,0,0,1,1.73-2.46l3.1-4.43a1.51,1.51,0,0,1,1.73-2.47l3.11-4.43A1.52,1.52,0,0,0,273,337l-2.19-1.55a1.49,1.49,0,0,0-2.09.36l-3.11,4.43a1.51,1.51,0,0,1-1.73,2.47l-3.1,4.43a1.5,1.5,0,0,1-1.73,2.46l-4,5.66,2.46,1.74,2.19,1.55Z"/><path class="cls-12" d="M38.06,428.77q-2.1-3.09-4.17-6.19l-8.41,5.54c3.86-2.54,7.32-5.68,11.17-8.22s7.93-4.36,11.7-6.84l-8.42,5.54,4.48,7Z"/><path class="cls-12" d="M35.07,412.66a1.51,1.51,0,0,0-2.09-.42,1.5,1.5,0,0,0,.42-2.08l-3-4.51a1.5,1.5,0,0,0-2.08-.42,1.5,1.5,0,0,0,.42-2.08l-3-4.51a1.5,1.5,0,0,0-2.08-.42l-2.25,1.48a1.49,1.49,0,0,0-.42,2.08l3,4.5a1.51,1.51,0,0,0,2.09.43,1.5,1.5,0,0,0-.42,2.08l3,4.51a1.51,1.51,0,0,0,2.09.42,1.5,1.5,0,0,0-.42,2.08l3.83,5.76,2.51-1.66,2.25-1.48Z"/><path class="cls-12" d="M277.63,381.62q3-2.17,6.09-4.32L278,369c2.64,3.8,5.86,7.17,8.49,11s4.56,7.82,7.13,11.52l-5.75-8.27L281,387.89Z"/><path class="cls-12" d="M293.66,378.23a1.5,1.5,0,1,1,2.46-1.72l4.43-3.11a1.5,1.5,0,0,1,2.47-1.72l4.43-3.11a1.51,1.51,0,0,0,.37-2.1l-1.53-2.21a1.5,1.5,0,0,0-2.09-.37L299.77,367a1.5,1.5,0,0,1-2.47,1.72l-4.43,3.11a1.51,1.51,0,0,0-.37,2.1,1.49,1.49,0,0,0-2.09-.37l-5.66,4,1.71,2.48,1.54,2.2Z"/><path class="cls-12" d="M64.78,398.21q-1.85-3.24-3.65-6.51l-8.83,4.84c4.05-2.22,7.74-5.06,11.8-7.29s8.26-3.7,12.21-5.87l-8.84,4.84,3.9,7.32Z"/><path class="cls-12" d="M63.1,381.91a1.51,1.51,0,0,0-2-.59,1.49,1.49,0,0,0,.58-2L59,374.55a1.5,1.5,0,0,0-2-.6,1.5,1.5,0,0,0,.59-2L55,367.18a1.51,1.51,0,0,0-2.05-.59l-2.36,1.29a1.5,1.5,0,0,0-.59,2l2.62,4.73a1.51,1.51,0,0,0,2,.6,1.49,1.49,0,0,0-.59,2L56.65,382a1.5,1.5,0,0,0,2,.59,1.49,1.49,0,0,0-.58,2l3.34,6.05,2.65-1.45L66.45,388Z"/><path class="cls-13" d="M111.14,428.74c-2-2.78-4.58-5.19-6.89-7.77h0Z"/><path class="cls-13" d="M99.9,415.06c-1.77-3-3.27-6.14-5.3-8.92Z"/><path class="cls-13" d="M101.82,418a38.2,38.2,0,0,0,2.43,3c26.72-19.74,53.67-40.82,80.4-60.55.85-.6,6.86-7.4,6.39-8.05s-7.83,2.44-9.47,3.65L99.91,415.08v0C100.5,416.07,101.13,417.06,101.82,418Z"/><path class="cls-13" d="M91,422.56c-1.1.81-1.58,2-1.08,2.71-.5-.69-1.8-.59-2.9.23l-7.17,5.29c-1.1.81-1.59,2-1.08,2.71-.51-.69-1.8-.58-2.9.23L68.73,439c-1.1.81-1.59,2-1.09,2.71L69.27,444c.5.69,1.8.58,2.9-.23l7.17-5.29c1.1-.81,1.58-2,1.08-2.71.5.69,1.8.58,2.9-.23l7.17-5.29c1.1-.81,1.59-2,1.09-2.71.5.68,1.79.58,2.89-.23l9.17-6.76L101.82,418l-1.62-2.22Z"/><line class="cls-13" x1="111.31" y1="428.6" x2="94.78" y2="406"/><path class="cls-13" d="M84.29,328.66c3.44,0,6.88-.58,10.32-.89h0Z"/><path class="cls-13" d="M102.17,327.8c3.42.36,6.85,1.05,10.28,1.08Z"/><path class="cls-13" d="M98.89,327.58a37.58,37.58,0,0,0-3.82.19c-.25,33.31.44,67.61.18,100.93,0,1,1.8,9.95,2.6,9.95,1,0,2.74-7.75,2.76-9.8l1.76-101.05h0C101.22,327.68,100.06,327.59,98.89,327.58Z"/><path class="cls-13" d="M101.61,316.18c-.11-1.37-.79-2.48-1.63-2.49.84,0,.63-2.47.63-2.47v-8.94s.32-2.49-.52-2.49c.84,0,1.54-1.1,1.52-2.47v-8.94c.11-1.37-1.42-2-1.42-2H97.45a3.17,3.17,0,0,0-1.84,2v8.93c.21,1.37.88,2.49,1.73,2.5-.85,0-.73,2.47-.73,2.47v8.93s-.23,2.49.62,2.5c-.85,0-1.54,1.1-1.62,2.47v11.23l3,1h3Z"/><line class="cls-13" x1="84.11" y1="329.37" x2="112.11" y2="329.59"/><path class="cls-13" d="M222.29,328.66c3.44,0,6.88-.58,10.32-.89h0Z"/><path class="cls-13" d="M240,327.8c3.43.36,6.85,1.05,10.28,1.08Z"/><path class="cls-13" d="M236.89,327.58a37.58,37.58,0,0,0-3.82.19c-.25,33.31.44,67.61.18,100.93,0,1,1.8,9.95,2.6,9.95,1,0,2.74-7.75,2.76-9.8l1.76-101.05h0C239.22,327.68,238.06,327.59,236.89,327.58Z"/><path class="cls-13" d="M239.61,316.18c-.32-1.37-1-2.48-1.84-2.49.84,0,.84-2.47.84-2.47v-8.94s.11-2.49-.73-2.49c.84,0,1.54-1.1,1.73-2.47v-8.94a2.72,2.72,0,0,0-1.62-2h-2.75a2.61,2.61,0,0,0-1.63,2v8.93c0,1.37.67,2.49,1.52,2.5-.85,0-.52,2.47-.52,2.47v8.93s-.43,2.49.41,2.5c-.84,0-1.54,1.1-1.41,2.47v11.23l2.85,1h3.15Z"/><line class="cls-13" x1="222.11" y1="329.37" x2="250.11" y2="329.59"/><path class="cls-13" d="M250.83,412c-1.73,3-2.91,6.29-4.35,9.45h0Z"/><path class="cls-13" d="M242.83,427.84c-2,2.81-4.31,5.46-6,8.43Z"/><path class="cls-13" d="M244.75,424.89a37.76,37.76,0,0,0,1.73-3.42c-28.68-16.73-58.68-33.14-87.36-49.88-.89-.54-9.49-3.36-9.9-2.66s5.35,6.23,7.11,7.26l86.51,51.63v0C243.51,426.88,244.16,425.91,244.75,424.89Z"/><path class="cls-13" d="M253.21,433c1.18.69,2.48.65,2.9-.09-.42.74.19,1.89,1.37,2.58l7.69,4.49c1.18.69,2.48.66,2.91-.08-.43.74.19,1.89,1.37,2.58l7.69,4.49c1.18.69,2.48.65,2.9-.08l1.39-2.39c.42-.73-.19-1.89-1.37-2.58l-7.69-4.49c-1.18-.69-2.49-.65-2.91.08.42-.73-.19-1.88-1.37-2.57l-7.69-4.49c-1.18-.69-2.48-.66-2.91.08.43-.74-.18-1.89-1.36-2.58l-9.83-5.74-1.55,2.67-1.37,2.38Z"/><line class="cls-13" x1="250.63" y1="411.92" x2="236.6" y2="436.17"/></g></g></g></svg>